<svg width="20" height="20" viewBox="0 0 20 20" fill="none" xmlns="http://www.w3.org/2000/svg">
  <path d="M15.683 5.108c-.03-.028-1.485-1.15-3.597-1.15-1.52 0-2.763.59-3.676.59-.95 0-2.25-.59-3.72-.59-2.18 0-3.6 1.15-3.63 1.18-.03.03-3.05 2.66-3.05 7.78 0 5.4 4.4 9.73 9.82 9.73 1.84 0 3.31-.64 4.45-.64 1.16 0 2.46.64 4.48.64 5.4 0 9.78-4.28 9.78-9.64 0-5.12-3.02-7.66-3.05-7.69zm-3.6 13.62c-1.15.1-2.12-.7-2.25-.82-.13-.12-3.18-1.88-3.18-5.63 0-3.47 2.82-5.14 2.95-5.23.13-.1 1.15-.88 2.65-.88.8 0 1.45.28 1.95.28.46 0 1.08-.28 1.85-.28 1.35 0 2.25.7 2.38.82.12.1 2.95 2.48 2.95 5.9 0 3.75-2.05 5.5-2.18 5.62-.13.1-1.1.81-2.17.81z" fill="#000000"/>
</svg>
